
        <svg xmlns="http://www.w3.org/2000/svg" xmlns:xlink="http://www.w3.org/1999/xlink" version="1.1" width="3218.2270084392107" 
        height="3219.4285714285716" viewBox="0 0 3218.2270084392107 3219.4285714285716">
			
			<g transform="scale(10.971428571428572) translate(10, 10)">
				<defs id="SvgjsDefs1024"></defs><g id="SvgjsG1025" featureKey="rootContainer" transform="matrix(2.6308629512786865,0,0,2.6308629512786865,2.9093945379654818,0.07570145486660024)" fill="#000000"><path xmlns="http://www.w3.org/2000/svg" d="M101.7 40.8A50.6 50.6 0 0 0 96.2 26a48.8 48.8 0 0 0-5.9-8.3l-1.8-2-.6-.7-.7-.6-2-1.8a48.8 48.8 0 0 0-8.3-5.9 50.6 50.6 0 0 0-14.8-5.6A51.7 51.7 0 0 0 41.6.9a52.3 52.3 0 0 0-11.2 3.6A51 51 0 0 0 6.7 26.4c-.6 1-1.1 2.1-1.6 3.1s-1 2.1-1.4 3.3A49.9 49.9 0 0 0 1.8 39c-.3 1.2-.6 2.3-.8 3.5a48.6 48.6 0 0 0 1.8 25.8 48 48 0 0 0 6.4 13.9 48.6 48.6 0 0 0 20.7 17.5L33 101l3.1 1a47.7 47.7 0 0 0 6.3 1.4 49.1 49.1 0 0 0 12.5.2 48.2 48.2 0 0 0 11.5-2.8 49.7 49.7 0 0 0 5.2-2.3l1.6-.7 3.1-1.6a50.6 50.6 0 0 0 5.8-3.7 52.1 52.1 0 0 0 9.5-9.2 51 51 0 0 0 6.6-10.7 52.3 52.3 0 0 0 3.6-11.2 51.7 51.7 0 0 0-.1-20.6zm-29.3 57l-2.4 1A51 51 0 0 1 19.7 91a47.9 47.9 0 0 0 8.1 4.8 48 48 0 0 0 14.6 5.5 48.6 48.6 0 0 0 27-2.3l3.1-1.3 2.5-1.3zM3.3 69.1l-.5-1.9a51.5 51.5 0 0 0 5.5 11.5c-.7-1.1-1.4-2.2-2-3.3s-1-1.9-1.5-2.9-.9-2-1.3-3zm14.6 18.8A48.1 48.1 0 0 1 7 36.5c.4-1 .9-2 1.3-3s.9-2 1.5-2.9a47.6 47.6 0 0 1 3.5-5.4 49.9 49.9 0 0 1 8.7-9l1.7-1.3a47.1 47.1 0 0 1 6.3-3.4l3.1-1.2 3.1-1a47.6 47.6 0 0 1 6.3-1.4 49.8 49.8 0 0 1 12.4-.2 48 48 0 0 1 11.5 2.7 49 49 0 0 1 9.8 5 48.6 48.6 0 0 1 13.6 13.7 47.1 47.1 0 0 1 4.5 8.6 47.7 47.7 0 0 1 1.3 24.2 47.6 47.6 0 0 1-5.2 13.9 45.9 45.9 0 0 1-5.5 7.8l-1.7 1.9-.6.6-.6.6-2 1.8a46 46 0 0 1-7.8 5.5 47.6 47.6 0 0 1-13.9 5.2 48.7 48.7 0 0 1-19.2.1 49.3 49.3 0 0 1-9.8-3.1 47.9 47.9 0 0 1-11.4-8.3zm-4.9-63a48 48 0 0 0-3.5 5.5c-.6.9-1 2-1.5 2.9s-.9 2-1.3 3.1a48.5 48.5 0 0 0 11 51.7 48.1 48.1 0 0 0 8.3 6.6 49.7 49.7 0 0 1-7.5-4.9L16.3 88l-.7-.7a50.9 50.9 0 0 1-13.7-25 47.2 47.2 0 0 1-.5-6.8 48 48 0 0 1 17-36.7 51.2 51.2 0 0 0-5.4 6.1zM75.2 96l-2.9 1.5-3 1.3a48.3 48.3 0 0 1-26.9 2.2 47.4 47.4 0 0 1-11.3-3.8 49.5 49.5 0 0 0 7.9 2.3 48.8 48.8 0 0 0 19.3-.1 47.8 47.8 0 0 0 13.9-5.3 46.1 46.1 0 0 0 7.8-5.6l1.9-1.7.6-.6.6-.6 1.7-1.9a46.1 46.1 0 0 0 5.6-7.8A47.8 47.8 0 0 0 95.7 62a48.9 48.9 0 0 0 .1-19.3l-.3-1.5.4 1.5a46 46 0 0 1 1.6 9.5c.1 1.1.1 2 .1 2.5v1.7c0 .6 0 1.4-.1 2.5a45.9 45.9 0 0 1-1.5 9.4 47.7 47.7 0 0 1-6.2 13.6 48.8 48.8 0 0 1-11.4 12.2zm14.7-14A47.7 47.7 0 0 0 96 68.4a46 46 0 0 0 1.6-9.5c.1-1.1.1-2 .1-2.5v-1.8c0-.6 0-1.4-.1-2.5a46 46 0 0 0-1.6-9.5l-.8-2.7a49.5 49.5 0 0 0-2.7-7.8 48.4 48.4 0 0 0-15.2-18.9l-2.7-1.9 1 .6a46 46 0 0 1 7.8 5.5l1.9 1.7.6.6.6.6 1.7 1.9a46 46 0 0 1 5.5 7.8 47.7 47.7 0 0 1 5.4 14 48.7 48.7 0 0 1 .1 19.2 49.3 49.3 0 0 1-3.4 10.5 48 48 0 0 1-6.2 10.1 49.1 49.1 0 0 1-9 8.7l-.6.4a48.9 48.9 0 0 0 9.9-11zM71.7 10a47.4 47.4 0 0 1 5.4 3.5 49.8 49.8 0 0 1 8.9 8.7 47.9 47.9 0 0 1 6.2 10l1.5 3.6A47 47 0 0 0 90 29a48.8 48.8 0 0 0-13.6-13.8 49.5 49.5 0 0 0-9.9-5.1 48.4 48.4 0 0 0-24.1-2.6A47.8 47.8 0 0 0 36 8.9l-3.1 1-3.1 1.3-1.1.5L32 10a49.1 49.1 0 0 1 10.5-3.4 48.6 48.6 0 0 1 19.2 0 46.8 46.8 0 0 1 8.6 2.6zm-9.9-3.5a48.9 48.9 0 0 0-19.3-.1 49.5 49.5 0 0 0-10.6 3.3 47.2 47.2 0 0 0-8.2 4.7 48.4 48.4 0 0 0-22.6 41c0 .9 0 1.8.1 2.8a51.3 51.3 0 0 1 1.6-21.5A48.1 48.1 0 0 1 65.7 7.2l3 1.3h.2a47.1 47.1 0 0 0-7.1-2zM.3 49.4a51.1 51.1 0 0 0 1 12l.3 1.5.4 2.2A48.6 48.6 0 0 1 .3 49.4zm66.1 51.2a48.1 48.1 0 0 1-11.4 2.7 49.1 49.1 0 0 1-12.5-.2 47.5 47.5 0 0 1-6.3-1.4l-3.1-1-3.1-1.2A48.3 48.3 0 0 1 9.4 82.1a47.2 47.2 0 0 1-5-9.9l.2.4c.5 1 1 2 1.5 2.9A47.8 47.8 0 0 0 9.6 81a52.7 52.7 0 0 0 3.6 4.2l2.2 2.3a51.3 51.3 0 0 0 54.3 11.7zm35.3-39.4a52.2 52.2 0 0 1-3.6 11.1A51 51 0 0 1 91.6 83a52.1 52.1 0 0 1-9.5 9.2 50.7 50.7 0 0 1-5.8 3.7l-2 1 2-1.3.7-.5 3.7-2.5a49.1 49.1 0 0 0 9-8.7 48.2 48.2 0 0 0 6.2-10.1 49.4 49.4 0 0 0 3.4-10.6 48.8 48.8 0 0 0-.1-19.2 47.8 47.8 0 0 0-5.3-14 46.1 46.1 0 0 0-5.6-7.8l-1.7-1.9-.6-.6-.6-.6-1.9-1.7a46 46 0 0 0-7.8-5.6l-2.2-1.2-1.6-.9-3-1.5-3.1-1.3A48.4 48.4 0 0 0 5.3 30v-.3c.5-1 1-2.1 1.6-3.1a50.4 50.4 0 0 1 3.7-5.7 52.8 52.8 0 0 1 9.2-9.5 50.9 50.9 0 0 1 10.7-6.6 52.1 52.1 0 0 1 11.2-3.6 51.5 51.5 0 0 1 20.3.1 50.4 50.4 0 0 1 14.8 5.5 48.7 48.7 0 0 1 8.3 5.9l2 1.8.7.6.6.7 1.8 2a48.6 48.6 0 0 1 5.9 8.3 50.5 50.5 0 0 1 5.5 14.8 51.5 51.5 0 0 1 .1 20.3z"></path></g><g id="SvgjsG1026" featureKey="symbolFeature-0" transform="matrix(1.089332103729248,0,0,1.089332103729248,81.4421763490022,56.38945833677485)" fill="#000000"><title xmlns="http://www.w3.org/2000/svg">Fruits</title><path xmlns="http://www.w3.org/2000/svg" d="M73,22a29.78,29.78,0,0,0-12.42,3.8A53.49,53.49,0,0,1,70.73,8.29a1,1,0,0,0-1.11-1.6A42.49,42.49,0,0,0,54.68,17.47C53.87,8.75,50.39,6.35,50.22,6.23a1,1,0,0,0-1.09,0c-0.17.11-3.65,2.52-4.46,11.23A42.49,42.49,0,0,0,29.74,6.69a1,1,0,0,0-1.11,1.6A53.49,53.49,0,0,1,38.77,25.81,29.78,29.78,0,0,0,26.35,22a1,1,0,0,0-.56,1.86c0.11,0.06,10,5.52,13.77,15.07a19.22,19.22,0,0,0-5.28-.3A1,1,0,0,0,34,40.57s4,1.54,5.86,4.9a19.09,19.09,0,0,0-5.46,4.27c-4.06,4.58-6.21,11.32-6.21,19.49s2.15,14.91,6.21,19.49a19.78,19.78,0,0,0,15.27,6.57,19.78,19.78,0,0,0,15.27-6.57c4.06-4.58,6.21-11.32,6.21-19.49S69,54.32,64.95,49.74a19.09,19.09,0,0,0-5.46-4.27c1.82-3.35,5.81-4.88,5.86-4.9a1,1,0,0,0-.27-1.92,19.18,19.18,0,0,0-5.27.29c3.78-9.54,13.65-15,13.76-15.07A1,1,0,0,0,74,22.71,1,1,0,0,0,73,22Zm-19.15-.4q0.47-.64,1-1.28a40,40,0,0,1,11.48-9.78,58.18,58.18,0,0,0-8.45,17,28.09,28.09,0,0,0-3.65,3.28C54.11,30.42,54,30,53.87,29.53s-0.21-.67-0.31-1c-0.22-.65-0.45-1.25-0.69-1.81a23,23,0,0,0-1-2.12q0.49-.8,1-1.6C53.18,22.55,53.52,22.08,53.86,21.61ZM43.8,63.93a66.53,66.53,0,0,0,5.85-5.84,66.54,66.54,0,0,0,5.85,5.84,59.36,59.36,0,0,1-5.85,5.86A59.37,59.37,0,0,1,43.8,63.93Zm12.39,12.4c-0.6.5-1.21,1-1.84,1.49-1.52,1.19-3.11,2.3-4.69,3.33-1.59-1-3.17-2.15-4.69-3.33-0.64-.5-1.25-1-1.84-1.49a63.74,63.74,0,0,0,6.54-4.87A63.73,63.73,0,0,0,56.19,76.33ZM43,62.93a37.14,37.14,0,0,1-4.26-6.34c0.8-.69,1.59-1.4,2.33-2.11s1.59-1.57,2.27-2.33c0.23-.26.44-0.51,0.65-0.76l0.21-.26,0.39,0.1h0.06L45,51.84q0.29,0.48.62,1l0.18,0.26a45.51,45.51,0,0,0,2.81,3.75l0.22,0.26A64.53,64.53,0,0,1,43,62.93ZM42,63.74a60.52,60.52,0,0,1-6.42,4.8,20.44,20.44,0,0,1-3.52-6.91,67.25,67.25,0,0,0,5.62-4.2A40.15,40.15,0,0,0,42,63.74Zm0.84,1a61.47,61.47,0,0,0,5.83,5.87,61.93,61.93,0,0,1-6.59,4.84,46.66,46.66,0,0,1-5.69-5.87A62.4,62.4,0,0,0,42.86,64.75Zm1.29,14.12C45.54,80,47,81,48.42,81.94a55.52,55.52,0,0,1-6.61,3.53,52.06,52.06,0,0,1-6.22-5.08,48.68,48.68,0,0,0,6.35-3.33C42.65,77.67,43.38,78.27,44.14,78.87Zm5.51,3.87a58.41,58.41,0,0,0,6.56,3.61,45.49,45.49,0,0,1-6.56,3.61,45.48,45.48,0,0,1-6.56-3.61A58.41,58.41,0,0,0,49.65,82.74Zm1.23-.8c1.44-1,2.88-2,4.27-3.07,0.77-.6,1.49-1.2,2.2-1.8a48.69,48.69,0,0,0,6.35,3.33,52.05,52.05,0,0,1-6.22,5.08A55.51,55.51,0,0,1,50.89,81.94Zm6.33-6.48a61.93,61.93,0,0,1-6.59-4.84,61.47,61.47,0,0,0,5.83-5.87,62.42,62.42,0,0,0,6.46,4.84A46.65,46.65,0,0,1,57.21,75.46Zm0.07-11.71a40.16,40.16,0,0,0,4.31-6.31,67.29,67.29,0,0,0,5.62,4.2,20.44,20.44,0,0,1-3.52,6.91A60.5,60.5,0,0,1,57.29,63.74Zm-0.94-.81a64.53,64.53,0,0,1-5.83-5.84l0.22-.26a45.55,45.55,0,0,0,2.81-3.74l0.18-.27q0.31-.48.6-1l0.36-.61,0.12,0,0.35-.09,0.22,0.27c0.21,0.25.42,0.51,0.65,0.77,0.69,0.77,1.47,1.57,2.3,2.36s1.5,1.39,2.28,2.06A37.13,37.13,0,0,1,56.35,62.93ZM52.79,51.82l-0.28.43-0.38.56-0.35.5c-0.65.92-1.36,1.84-2.13,2.76-0.77-.92-1.48-1.85-2.13-2.77l-0.35-.49-0.38-.56-0.28-.43-0.18-.29,0.86,0.1,1,0.07c0.49,0,1,0,1.48,0s1,0,1.48,0l1-.07,0.8-.09ZM51.9,49.66l-0.37,0-1,.05H50.34V45.37a0.64,0.64,0,0,0,0-.19s0,0,0,0a0.65,0.65,0,0,0-1.23,0v0a0.64,0.64,0,0,0,0,.19v4.38H48.85l-1-.05-0.37,0-0.79-.08c0.08-.65.18-1.27,0.3-1.87,0.07-.35.15-0.7,0.23-1s0.11-.4.16-0.59l0.12-.41,0.13-.42,0.1-.3c0.12-.36.25-0.71,0.38-1s0.2-.48.3-0.71l0.19-.43c0.16-.36.33-0.69,0.49-1s0.3-.56.44-0.8l0.11-.19,0.06-.11,0.06,0.11L49.85,41c0.14,0.24.29,0.51,0.44,0.8s0.32,0.63.49,1L51,43.21c0.1,0.23.2,0.46,0.29,0.71s0.26,0.68.38,1l0.1,0.3,0.13,0.42L52,46.09c0.05,0.19.11,0.39,0.16,0.59s0.16,0.68.23,1c0.12,0.6.22,1.22,0.3,1.87ZM50.34,36V31.19a0.66,0.66,0,1,0-1.32,0V36q-0.67-1.09-1.45-2.17c-0.24-.33-0.48-0.66-0.74-1l0,0a22.93,22.93,0,0,1,.78-3.28c0.11-.34.22-0.68,0.34-1s0.26-.68.4-1,0.26-.6.39-0.87,0.39-.78.57-1.1,0.28-.5.41-0.71c0.13,0.21.27,0.45,0.41,0.71s0.37,0.69.56,1.09,0.26,0.57.4,0.89,0.27,0.64.4,1,0.23,0.65.34,1a22.88,22.88,0,0,1,.78,3.27l0,0c-0.26.33-.5,0.66-0.74,1Q51,34.92,50.34,36ZM49.68,8.44c1,1.15,2.91,4.29,3.16,11.25-0.79,1-1.51,2-2.17,3.07l-0.22-.29-0.11-.11V17.56a0.66,0.66,0,0,0-1.32,0v4.81l-0.11.11-0.22.29c-0.66-1-1.38-2-2.17-3.07C46.77,12.72,48.71,9.59,49.68,8.44ZM33,10.56a40,40,0,0,1,11.48,9.79q0.51,0.64,1,1.28c0.34,0.47.68,0.93,1,1.4s0.7,1.07,1,1.59a23,23,0,0,0-1,2.11c-0.24.56-.47,1.16-0.69,1.81-0.11.32-.21,0.65-0.31,1s-0.24.88-.35,1.35a28.1,28.1,0,0,0-3.65-3.28A58.18,58.18,0,0,0,33,10.56ZM30.6,24.69a26.3,26.3,0,0,1,9.12,4q0.69,0.48,1.32,1c0.46,0.36.9,0.73,1.32,1.12a26.81,26.81,0,0,1,2.36,2.44q0.36,0.42.7,0.85l0.19,0.25L46.14,35l0.37,0.53,0.37,0.56c0.53,0.81,1,1.63,1.46,2.45l0.15,0.28c-0.13.19-.29,0.43-0.46,0.71s-0.37.61-.58,1l-0.12.23c-0.16.31-.33,0.64-0.49,1l-0.27.6q-0.35-.31-0.73-0.6l-0.34-.25q-0.48-.35-1-0.66L44,40.57a14.92,14.92,0,0,0-2.07-.95l-0.13-.37C39.45,32.38,34.24,27.45,30.6,24.69Zm7.67,16a14.5,14.5,0,0,1,2,.45c0.38,0.11.76,0.23,1.11,0.37s0.76,0.31,1.12.49A13,13,0,0,1,45,43.64q0.42,0.34.79,0.7l-0.08.23q-0.16.48-.3,1c-0.1.35-.18,0.67-0.26,1a25,25,0,0,0-.47,2.65,9.64,9.64,0,0,1-1.88-.64,4.17,4.17,0,0,1-.15-0.73,9.39,9.39,0,0,0-1-3.22l-0.24-.43a10.49,10.49,0,0,0-.72-1.07A12.86,12.86,0,0,0,38.27,40.73Zm1.83,6.88A1,1,0,0,0,40,48a2.3,2.3,0,0,0,1,1.79l0.19,0.14a6.87,6.87,0,0,0,1.57.8l-0.55.63c-0.37.42-.78,0.85-1.21,1.28-0.9.9-1.89,1.83-2.93,2.73a14.74,14.74,0,0,1-1.39-5.15A17,17,0,0,1,40.1,47.62ZM35.52,51.5a18,18,0,0,0,1.56,4.72,66.24,66.24,0,0,1-5.28,4,9.88,9.88,0,0,1-.08-1.15,0.65,0.65,0,0,0-.07-0.28A21.34,21.34,0,0,1,35.52,51.5ZM30.18,69.23a38.45,38.45,0,0,1,.57-6.78l0.15-.09a22.49,22.49,0,0,0,3.58,6.87,36.55,36.55,0,0,1-4.24,2.22C30.21,70.73,30.18,70,30.18,69.23Zm0.16,3.62a36.89,36.89,0,0,0,4.94-2.56,47.08,47.08,0,0,0,5.63,5.89,46.47,46.47,0,0,1-6.34,3.2,17.37,17.37,0,0,1-4.18-6C30.37,73.21,30.36,73,30.34,72.86ZM31,77.15a29.19,29.19,0,0,0,2.28,2.73q-0.7.25-1.39,0.47A27.68,27.68,0,0,1,31,77.15Zm1.36,4.44c0.64-.2,1.28-0.42,1.93-0.67a52,52,0,0,0,6.1,5.14,18.3,18.3,0,0,1-4.55,1.25A20.23,20.23,0,0,1,32.35,81.6ZM37,88.49A24.75,24.75,0,0,0,41.66,87,48.68,48.68,0,0,0,48,90.64,21.29,21.29,0,0,1,42.46,92,17,17,0,0,1,37,88.49ZM49.68,93.3a20.7,20.7,0,0,1-4.37-.46,28.46,28.46,0,0,0,4.34-1.45A28.42,28.42,0,0,0,54,92.85,20.71,20.71,0,0,1,49.68,93.3ZM56.89,92a21.21,21.21,0,0,1-5.56-1.35A48.69,48.69,0,0,0,57.64,87a24.63,24.63,0,0,0,4.75,1.52A17,17,0,0,1,56.89,92Zm6.64-4.66a18.09,18.09,0,0,1-4.6-1.26A52,52,0,0,0,65,80.93c0.66,0.25,1.32.48,2,.69A20.22,20.22,0,0,1,63.52,87.33Zm3.95-7q-0.71-.22-1.43-0.48a28.86,28.86,0,0,0,2.36-2.84A27.77,27.77,0,0,1,67.47,80.37ZM69,73.12c-0.42,1.69-2,3.93-4.26,6.27a46.47,46.47,0,0,1-6.34-3.2A47.07,47.07,0,0,0,64,70.29a36.78,36.78,0,0,0,5,2.59ZM68.61,62.49a38.48,38.48,0,0,1,.56,6.74c0,0.77,0,1.52-.06,2.25a36.44,36.44,0,0,1-4.29-2.25,22.49,22.49,0,0,0,3.58-6.87Zm-4.82-11a21.27,21.27,0,0,1,3.91,7.3,0.62,0.62,0,0,0-.11.33,9.85,9.85,0,0,1-.08,1.15,66.27,66.27,0,0,1-5.28-4A17.93,17.93,0,0,0,63.78,51.45ZM62.6,50.16a14.69,14.69,0,0,1-1.39,5.19c-1-.89-2-1.79-2.88-2.68-0.44-.44-0.86-0.88-1.24-1.31l-0.56-.65a6.93,6.93,0,0,0,1.61-.82l0.19-.14a2.3,2.3,0,0,0,1-1.79,1,1,0,0,0-.07-0.35A17,17,0,0,1,62.6,50.16Zm-1.51-9.43a12.86,12.86,0,0,0-2.45,2.4,10.48,10.48,0,0,0-.72,1.07l-0.24.43a9.39,9.39,0,0,0-1,3.22,4.17,4.17,0,0,1-.15.72,9.53,9.53,0,0,1-1.89.65,25.06,25.06,0,0,0-.47-2.65c-0.08-.34-0.16-0.66-0.25-1s-0.2-.7-0.3-1l-0.08-.23q0.38-.36.79-0.7A13,13,0,0,1,56.83,42c0.36-.18.73-0.34,1.12-0.49s0.73-.26,1.11-0.37A14.5,14.5,0,0,1,61.08,40.73Zm-3.51-1.48-0.12.36a14.88,14.88,0,0,0-2.09,1l-0.51.3q-0.52.32-1,.66l-0.35.26q-0.38.29-.72,0.6l-0.27-.6c-0.17-.36-0.33-0.69-0.49-1l-0.12-.23c-0.21-.38-0.4-0.71-0.58-1s-0.33-.52-0.46-0.71L51,38.58c0.43-.81.92-1.63,1.45-2.44l0.38-.56L53.22,35l0.53-.71,0.19-.25q0.34-.43.7-0.85A26.82,26.82,0,0,1,57,30.8c0.42-.38.86-0.76,1.32-1.12s0.87-.67,1.32-1a26.3,26.3,0,0,1,9.12-4C65.11,27.45,59.91,32.38,57.57,39.25Z"></path></g><g id="SvgjsG1027" featureKey="nameFeature-0" transform="matrix(1.226853370666504,0,0,1.226853370666504,84.48936180640246,150.78701239124558)" fill="#000000"><path d="M21.64 13.36 c0.2 -0.4 0.48 -0.6 0.84 -0.6 c0.4 0 0.72 0.16 1 0.52 s0.32 0.76 0.12 1.2 c-0.84 1.88 -2.4 2.6 -4.44 2.6 c-1.32 0 -2.68 -0.24 -4.04 -0.68 c-0.2 -0.04 -0.36 -0.12 -0.52 -0.16 l-0.6 -0.12 c0.04 8.28 -0.2 16.16 -0.76 23.72 c-0.12 0.76 -1.08 0.8 -1.68 0.8 c-0.4 0 -0.8 -0.08 -1.2 -0.2 c-0.36 -0.12 -0.56 -0.32 -0.52 -0.6 c0.28 -4.16 0.52 -8.16 0.64 -12.28 c0.12 -4.04 0.16 -8.16 0.12 -12.28 l-1.12 -0.16 l-1.2 -0.16 c-0.56 -0.08 -1.16 -0.12 -1.76 -0.12 c-0.68 0 -1.44 0.12 -2.28 0.32 s-1.36 0.68 -1.56 1.48 c-0.2 0.52 -0.56 0.8 -1.08 0.8 c-0.36 0 -0.68 -0.12 -0.92 -0.4 c-0.28 -0.2 -0.32 -0.56 -0.2 -1 c0.44 -1.4 1.28 -2.32 2.48 -2.76 c1.24 -0.44 2.48 -0.68 3.8 -0.68 c2.88 0 5.56 0.68 8.28 1.44 l1.92 0.52 c0.72 0.2 1.4 0.32 2.08 0.32 c1.28 0 2.16 -0.52 2.6 -1.52 z M26.448000000000004 12.920000000000002 l5.48 0.12 c0.36 0 0.56 0.2 0.56 0.56 s-0.2 0.56 -0.56 0.56 l-0.84 0 l-0.36 12.36 l-0.4 12.36 l0.64 0 c0.36 0 0.56 0.16 0.56 0.52 s-0.2 0.56 -0.56 0.6 c-0.2 0.04 -0.48 0.04 -0.88 0.04 l-0.88 0 c-1 0 -2 -0.04 -2.96 -0.12 c-0.36 -0.04 -0.56 -0.28 -0.56 -0.64 c0 -0.32 0.2 -0.48 0.56 -0.48 s0.56 0 0.68 0.04 l0.4 -12.36 l0.36 -12.36 l-1.24 -0.08 c-0.36 0 -0.56 -0.2 -0.56 -0.6 c0 -0.36 0.2 -0.52 0.56 -0.52 z M43.096000000000004 19.04 l3.84 -5.56 c0.24 -0.36 0.56 -0.52 0.96 -0.52 c0.44 0 0.76 0.16 1.04 0.48 c0.28 0.36 0.24 0.76 -0.04 1.2 c-3 4.28 -5.92 8.48 -8.84 12.8 c4.64 2.56 7.76 6.8 8.72 11.96 c0.08 0.44 -0.04 0.8 -0.32 1.08 c-0.28 0.24 -0.56 0.36 -0.92 0.36 c-0.52 0 -0.84 -0.28 -0.96 -0.84 c-0.92 -4.68 -3.36 -8.12 -7.36 -10.4 c-0.12 3.2 -0.12 6.28 -0.4 9.44 c-0.12 0.68 -1.12 0.8 -1.72 0.8 c-0.36 0 -0.76 -0.08 -1.16 -0.2 c-0.36 -0.12 -0.56 -0.32 -0.52 -0.6 c0.52 -8.32 0.6 -16.92 0.28 -25.84 c-0.04 -0.28 0.16 -0.48 0.52 -0.6 c0.4 -0.12 0.8 -0.2 1.16 -0.2 c0.6 0 1.6 0.12 1.72 0.8 l0.16 5.68 c0.04 1.88 0.04 3.8 0 5.72 z M52.54400000000001 12.920000000000002 l5.48 0.12 c0.36 0 0.56 0.2 0.56 0.56 s-0.2 0.56 -0.56 0.56 l-0.84 0 l-0.36 12.36 l-0.4 12.36 l0.64 0 c0.36 0 0.56 0.16 0.56 0.52 s-0.2 0.56 -0.56 0.6 c-0.2 0.04 -0.48 0.04 -0.88 0.04 l-0.88 0 c-1 0 -2 -0.04 -2.96 -0.12 c-0.36 -0.04 -0.56 -0.28 -0.56 -0.64 c0 -0.32 0.2 -0.48 0.56 -0.48 s0.56 0 0.68 0.04 l0.4 -12.36 l0.36 -12.36 l-1.24 -0.08 c-0.36 0 -0.56 -0.2 -0.56 -0.6 c0 -0.36 0.2 -0.52 0.56 -0.52 z M64.39200000000001 13.600000000000001 c-0.16 2.12 -0.08 4.16 0.28 6.12 c0.04 0.28 -0.08 0.44 -0.44 0.56 c-0.4 0.12 -0.8 0.2 -1.16 0.2 c-0.48 0 -1.52 -0.16 -1.64 -0.76 c-0.36 -1.96 -0.44 -4 -0.28 -6.12 c0.12 -0.68 1.12 -0.76 1.64 -0.76 c0.44 0 0.84 0.04 1.16 0.16 s0.48 0.32 0.44 0.6 z M76.00000000000001 12.84 l0.36 0.04 c1.64 0.04 2.92 0.8 3.8 2.24 s1.44 2.88 1.64 4.32 c0.16 1.04 0.16 2.04 0.04 3 c-0.12 0.68 -1.12 0.84 -1.72 0.84 c-0.44 0 -0.84 -0.08 -1.2 -0.24 c-0.36 -0.12 -0.52 -0.32 -0.48 -0.6 c0.12 -0.8 0.12 -1.56 0 -2.28 c-0.12 -0.68 -0.28 -1.4 -0.56 -2.24 c-0.12 -0.44 -0.28 -1 -0.56 -1.8 c-0.28 -0.76 -0.64 -1.24 -1.04 -1.44 c-0.28 -0.04 -0.4 -0.08 -0.44 -0.08 c-1.68 0 -3.4 4.48 -3.6 6.12 c-0.28 1.64 -0.12 2.88 0.56 3.8 c1.24 1.88 3.88 3.04 5.96 3.8 c1.08 0.4 1.84 1.12 2.28 2.16 c0.36 1 0.56 2.08 0.52 3.24 c-0.04 1.88 -0.52 3.48 -1.36 4.88 c-0.84 1.36 -2.32 2.04 -4.4 2.04 c-2.16 0 -3.84 -0.84 -5.08 -2.52 c-1.2 -1.68 -1.92 -3.48 -2.12 -5.44 c-0.04 -0.28 0.12 -0.52 0.48 -0.64 c0.4 -0.12 0.8 -0.2 1.2 -0.2 c0.6 0 1.6 0.08 1.72 0.84 c0.2 1.48 1.56 6.2 3.6 6.2 c0.84 0 1.48 -0.52 1.84 -1.56 c0.4 -1.08 0.64 -1.92 0.68 -2.56 c0.04 -0.72 0.04 -1.44 0 -2.16 c-0.16 -1.32 -0.56 -2.6 -1.88 -3.2 c-1.76 -0.76 -3.48 -1.48 -5.04 -2.6 c-1.88 -1.32 -2.72 -3.08 -2.48 -5.2 c0.52 -3.92 2.68 -8.76 7.28 -8.76 z"></path></g><g id="SvgjsG1028" featureKey="sloganFeature-0" transform="matrix(0.8713297247886658,0,0,0.8713297247886658,59,206.76537101178448)" fill="#f1b849"><path d="M0 20 l0 -15 l7.36 0 l0 1.16 l-6.32 0 l0 5.7 l6.26 0 l0 0.92 l-6.26 0 l0 6.06 l6.46 0 l0 1.16 l-7.5 0 z M22.6755 20 l-3.36 -7.36 l-3.34 7.36 l-1.38 0 l3.64 -7.5 l-3.64 -7.5 l1.38 0 l3.34 7.36 l3.36 -7.36 l1.36 0 l-3.64 7.5 l3.64 7.5 l-1.36 0 z M34.611 20.18 c-2.52 0 -3.78 -1.32 -3.78 -3.96 l0 -7.4 c0 -1.3333 0.31666 -2.3266 0.95 -2.98 s1.6567 -0.98 3.07 -0.98 c1.2933 0 2.25 0.33 2.87 0.99 s0.93 1.6367 0.93 2.93 l0 7.44 c0 0.66666 -0.07 1.2467 -0.21 1.74 s-0.37 0.90668 -0.69 1.24 s-0.73666 0.58 -1.25 0.74 s-1.1433 0.24 -1.89 0.24 z M37.591 8.76 c0 -0.33334 -0.04664 -0.67338 -0.13998 -1.02 s-0.24668 -0.66332 -0.46002 -0.94998 s-0.49668 -0.52 -0.85002 -0.7 s-0.79 -0.27 -1.31 -0.27 c-0.57334 0 -1.05 0.08 -1.43 0.24 s-0.68 0.38334 -0.9 0.67 s-0.37666 0.62332 -0.47 1.01 s-0.14 0.80666 -0.14 1.26 l0 7.1 c0 0.34666 0.04 0.7 0.12 1.06 s0.22334 0.69 0.43 0.99 s0.48666 0.54666 0.84 0.74 s0.79668 0.29 1.33 0.29 c0.57334 0 1.05 -0.07666 1.43 -0.23 s0.68334 -0.36334 0.91 -0.63 s0.39 -0.58332 0.49 -0.94998 s0.15 -0.76332 0.15 -1.19 l0 -7.42 z M50.206500000000005 6.1 l0 13.9 l-1.16 0 l0 -13.9 l-3.26 0 l0 -1.1 l7.68 0 l0 1.1 l-3.26 0 z M61.182 20 l0 -15 l1.28 0 l0 15 l-1.28 0 z M77.63749999999999 16.22 c-0.01334 0.66666 -0.076582 1.25 -0.18992 1.75 s-0.30668 0.91334 -0.58002 1.24 s-0.63334 0.57 -1.08 0.73 s-1.01 0.24 -1.69 0.24 c-1.1733 0 -2.0266 -0.32666 -2.56 -0.98 s-0.8 -1.6467 -0.8 -2.98 l0 -7.4 c0 -1.3333 0.27 -2.3266 0.81 -2.98 s1.4633 -0.98 2.77 -0.98 c1.1733 0 2.0134 0.32666 2.52 0.98 s0.77332 1.6467 0.79998 2.98 l0.02 0.92 l-0.92 0 l-0.02 -1.16 c0 -0.33334 -0.03334 -0.67 -0.1 -1.01 s-0.18666 -0.65 -0.36 -0.93 s-0.41668 -0.50666 -0.73002 -0.68 s-0.73 -0.26 -1.25 -0.26 c-0.50666 0 -0.93 0.08 -1.27 0.24 s-0.61 0.38 -0.81 0.66 s-0.33666 0.61 -0.41 0.99 s-0.11 0.79 -0.11 1.23 l0.04 7.5 c0 0.92 0.17 1.64 0.51 2.16 s0.96334 0.78 1.87 0.78 c0.52 0 0.95 -0.07 1.29 -0.21 s0.60666 -0.33666 0.8 -0.59 s0.33 -0.56 0.41 -0.92 s0.12 -0.75334 0.12 -1.18 l0.02 -1.3 l0.92 0 z M96.92849999999999 6.140000000000001 l0 6.06 l6.02 0 l0 1.06 l-6.02 0 l0 6.74 l-1.16 0 l0 -15 l7.28 0 l0 1.14 l-6.12 0 z M117.96399999999998 20 l-3.3 -6.22 l-3.06 0 l0 6.22 l-0.98 0 l0 -15 l3.4 0 c0.78666 0 1.46 0.11666 2.02 0.35 s1.02 0.55 1.38 0.95 s0.62666 0.86334 0.8 1.39 s0.26 1.0767 0.26 1.65 c0 0.97334 -0.25 1.85 -0.75 2.63 s-1.1567 1.35 -1.97 1.71 l3.52 6.32 l-1.32 0 z M113.88399999999999 5.92 l-2.28 -0.000019531 l0 6.84 l2.42 0 c0.68 0 1.24 -0.10334 1.68 -0.31 s0.78334 -0.47332 1.03 -0.79998 s0.42 -0.7 0.52 -1.12 s0.15 -0.85 0.15 -1.29 c0 -0.46666 -0.08 -0.9 -0.24 -1.3 s-0.39 -0.75 -0.69 -1.05 s-0.66666 -0.53666 -1.1 -0.71 s-0.93 -0.26 -1.49 -0.26 z M130.5795 20.18 c-1.2267 0 -2.1768 -0.33336 -2.85 -1 s-1.01 -1.6533 -1.01 -2.96 l0 -11.22 l1.08 0 l0 11.16 c0 0.32 0.04334 0.65666 0.13 1.01 s0.23666 0.67334 0.45 0.96 s0.49668 0.52332 0.85002 0.70998 s0.79 0.28 1.31 0.28 c0.57334 0 1.0467 -0.08334 1.42 -0.25 s0.67334 -0.39666 0.9 -0.69 s0.38666 -0.64 0.48 -1.04 s0.14 -0.82666 0.14 -1.28 l0 -10.86 l1.06 0 l0 11.22 c0 1.3333 -0.32334 2.3266 -0.97 2.98 s-1.6433 0.98 -2.99 0.98 z M142.815 20 l0 -15 l1.28 0 l0 15 l-1.28 0 z M156.3905 6.1 l0 13.9 l-1.16 0 l0 -13.9 l-3.26 0 l0 -1.1 l7.68 0 l0 1.1 l-3.26 0 z M170.626 20.18 c-0.65334 0 -1.2335 -0.086738 -1.7401 -0.26008 s-0.93332 -0.45 -1.28 -0.83 s-0.60332 -0.87666 -0.76998 -1.49 s-0.23666 -1.3533 -0.21 -2.22 l1.2 0 c0 0.42666 0.02 0.87 0.06 1.33 s0.14666 0.88 0.32 1.26 s0.43668 0.69 0.79002 0.93 s0.84334 0.36 1.47 0.36 c0.53334 0 0.98668 -0.08 1.36 -0.24 s0.67668 -0.37334 0.91002 -0.64 s0.39668 -0.58 0.49002 -0.94 s0.14 -0.73334 0.14 -1.12 c0 -0.45334 -0.08334 -0.85 -0.25 -1.19 s-0.38666 -0.64334 -0.66 -0.91 s-0.59334 -0.50332 -0.96 -0.70998 s-0.75 -0.39 -1.15 -0.55 c-0.64 -0.25334 -1.2 -0.50334 -1.68 -0.75 s-0.87334 -0.52332 -1.18 -0.82998 s-0.53666 -0.66332 -0.69 -1.07 s-0.23 -0.90332 -0.23 -1.49 c0 -1.3333 0.35 -2.3266 1.05 -2.98 s1.7033 -0.98 3.01 -0.98 c1.1333 0 2.03 0.33 2.69 0.99 s0.99 1.65 0.99 2.97 l0 1.1 l-1.12 0 l0 -1.2 c0 -0.41334 -0.05 -0.79668 -0.15 -1.15 s-0.25666 -0.66334 -0.47 -0.93 s-0.48334 -0.47666 -0.81 -0.63 s-0.71666 -0.23 -1.17 -0.23 c-1.0667 0 -1.83 0.28 -2.29 0.84 s-0.67 1.3133 -0.63 2.26 c0.01334 0.41334 0.09 0.76668 0.23 1.06 s0.32666 0.55 0.56 0.77 s0.51334 0.41666 0.84 0.59 s0.69 0.34668 1.09 0.52002 c0.46666 0.2 0.93 0.41334 1.39 0.64 s0.89 0.50666 1.29 0.84 c0.4 0.34666 0.73 0.75 0.99 1.21 s0.39 1.03 0.39 1.71 c0 1.32 -0.33666 2.31 -1.01 2.97 s-1.61 0.99 -2.81 0.99 z"></path></g>
			</g>
		</svg>
	